<mxfile host="app.diagrams.net" modified="2024-04-24T12:32:00.403Z" agent="Mozilla/5.0 (Windows NT 10.0; Win64; x64) AppleWebKit/537.36 (KHTML, like Gecko) Chrome/124.0.0.0 Safari/537.36" etag="DRAWxs-alY79YW6C4cPj" version="24.2.8" type="github">
  <diagram id="C5RBs43oDa-KdzZeNtuy" name="Page-1">
    <mxGraphModel dx="1009" dy="1946" grid="1" gridSize="10" guides="1" tooltips="1" connect="1" arrows="1" fold="1" page="1" pageScale="1" pageWidth="827" pageHeight="1169" math="0" shadow="0">
      <root>
        <mxCell id="WIyWlLk6GJQsqaUBKTNV-0" />
        <mxCell id="WIyWlLk6GJQsqaUBKTNV-1" parent="WIyWlLk6GJQsqaUBKTNV-0" />
        <mxCell id="qd3GRjW1oIhmHpay5RaV-17" style="edgeStyle=none;rounded=0;orthogonalLoop=1;jettySize=auto;html=1;entryX=0.25;entryY=0;entryDx=0;entryDy=0;strokeColor=#23445D;" edge="1" parent="WIyWlLk6GJQsqaUBKTNV-1" source="qd3GRjW1oIhmHpay5RaV-0" target="qd3GRjW1oIhmHpay5RaV-8">
          <mxGeometry relative="1" as="geometry" />
        </mxCell>
        <mxCell id="qd3GRjW1oIhmHpay5RaV-0" value="&lt;div style=&quot;background-color:#1e1f22;color:#bcbec4&quot;&gt;&lt;div style=&quot;&quot;&gt;&lt;span style=&quot;color: rgb(255, 255, 255); text-align: left; white-space: pre; background-color: rgb(13, 13, 13);&quot;&gt;&lt;font style=&quot;font-size: 36px;&quot;&gt;&lt;font face=&quot;Söhne Mono, Monaco, Andale Mono, Ubuntu Mono, monospace&quot;&gt; Main&lt;/font&gt;&lt;/font&gt;&lt;/span&gt;&lt;/div&gt;&lt;div style=&quot;&quot;&gt;&lt;span style=&quot;color: rgb(255, 255, 255); text-align: left; white-space: pre; background-color: rgb(13, 13, 13);&quot;&gt;&lt;font style=&quot;&quot;&gt;&lt;font style=&quot;&quot; face=&quot;Comic Sans MS&quot;&gt;&lt;font size=&quot;3&quot;&gt;입력처리?&lt;/font&gt;&lt;span style=&quot;font-size: 36px;&quot;&gt; &lt;/span&gt;&lt;/font&gt;&lt;/font&gt;&lt;/span&gt;&lt;br&gt;&lt;/div&gt;&lt;/div&gt;" style="whiteSpace=wrap;html=1;fillColor=#182E3E;strokeColor=#FFFFFF;align=center;labelBackgroundColor=none;fontColor=#FFFFFF;fontFamily=Comic Sans MS;verticalAlign=top;strokeWidth=1;" vertex="1" parent="WIyWlLk6GJQsqaUBKTNV-1">
          <mxGeometry x="190" y="-30" width="320" height="180" as="geometry" />
        </mxCell>
        <mxCell id="qd3GRjW1oIhmHpay5RaV-8" value="&lt;div style=&quot;background-color:#1e1f22;color:#bcbec4&quot;&gt;&lt;div style=&quot;&quot;&gt;&lt;font style=&quot;font-size: 36px;&quot;&gt;Calculator&lt;/font&gt;&lt;/div&gt;&lt;div style=&quot;&quot;&gt;&lt;font style=&quot;font-size: 36px;&quot;&gt;&lt;br&gt;&lt;/font&gt;&lt;/div&gt;&lt;div style=&quot;text-align: left;&quot;&gt;&lt;font size=&quot;3&quot;&gt;더하기 &quot;+&quot; -&amp;gt;&amp;nbsp; n1 + n2&lt;/font&gt;&lt;/div&gt;&lt;div style=&quot;text-align: left;&quot;&gt;&lt;font size=&quot;3&quot;&gt;&amp;nbsp; &amp;nbsp;빼기 &quot;-&quot;&amp;nbsp; -&amp;gt; n1 - n2&lt;/font&gt;&lt;/div&gt;&lt;div style=&quot;text-align: left;&quot;&gt;&lt;font size=&quot;3&quot;&gt;곱하기 &quot;*&quot; -&amp;gt; n1 * n2&lt;/font&gt;&lt;/div&gt;&lt;div style=&quot;text-align: left;&quot;&gt;&lt;font size=&quot;3&quot;&gt;나누기 &quot;/&quot; -&amp;gt; n1 / n2&lt;/font&gt;&lt;/div&gt;&lt;/div&gt;" style="whiteSpace=wrap;html=1;fillColor=#182E3E;strokeColor=#FFFFFF;align=center;labelBackgroundColor=none;fontColor=#FFFFFF;fontFamily=Comic Sans MS;verticalAlign=top;strokeWidth=1;" vertex="1" parent="WIyWlLk6GJQsqaUBKTNV-1">
          <mxGeometry x="470" y="270" width="320" height="180" as="geometry" />
        </mxCell>
        <mxCell id="qd3GRjW1oIhmHpay5RaV-18" style="edgeStyle=none;rounded=0;orthogonalLoop=1;jettySize=auto;html=1;exitX=0.5;exitY=1;exitDx=0;exitDy=0;entryX=0.5;entryY=0;entryDx=0;entryDy=0;strokeColor=#23445D;fontFamily=Comic Sans MS;" edge="1" parent="WIyWlLk6GJQsqaUBKTNV-1" source="qd3GRjW1oIhmHpay5RaV-9" target="qd3GRjW1oIhmHpay5RaV-10">
          <mxGeometry relative="1" as="geometry" />
        </mxCell>
        <mxCell id="qd3GRjW1oIhmHpay5RaV-9" value="&lt;div&gt;&lt;span style=&quot;font-size: medium; background-color: initial;&quot;&gt;반복문?&lt;/span&gt;&lt;br&gt;&lt;/div&gt;&lt;div&gt;&lt;font size=&quot;3&quot;&gt;종료하시겠습니까?&lt;/font&gt;&lt;/div&gt;&lt;div&gt;&lt;br&gt;&lt;/div&gt;&lt;div&gt;for? while(true)&lt;/div&gt;&lt;div&gt;&lt;span style=&quot;background-color: initial;&quot;&gt;break&lt;/span&gt;&lt;br&gt;&lt;/div&gt;" style="whiteSpace=wrap;html=1;fillColor=#182E3E;strokeColor=#FFFFFF;align=center;labelBackgroundColor=none;fontColor=#FFFFFF;fontFamily=Comic Sans MS;verticalAlign=top;strokeWidth=1;" vertex="1" parent="WIyWlLk6GJQsqaUBKTNV-1">
          <mxGeometry x="70" y="270" width="240" height="100" as="geometry" />
        </mxCell>
        <mxCell id="qd3GRjW1oIhmHpay5RaV-10" value="&lt;div&gt;&lt;font style=&quot;font-size: 14px;&quot;&gt;&lt;br&gt;&lt;/font&gt;&lt;/div&gt;&lt;div&gt;&lt;font style=&quot;font-size: 14px;&quot;&gt;open fun equals(other: Any?): Boolean&lt;/font&gt;&lt;br&gt;&lt;/div&gt;&lt;div&gt;&lt;font style=&quot;font-size: 14px;&quot;&gt;객체의 내용을 비교하는 함수&amp;nbsp;&lt;/font&gt;&lt;/div&gt;" style="whiteSpace=wrap;html=1;fillColor=#182E3E;strokeColor=#FFFFFF;align=center;labelBackgroundColor=none;fontColor=#FFFFFF;fontFamily=Comic Sans MS;verticalAlign=top;strokeWidth=1;" vertex="1" parent="WIyWlLk6GJQsqaUBKTNV-1">
          <mxGeometry x="70" y="420" width="240" height="100" as="geometry" />
        </mxCell>
        <mxCell id="qd3GRjW1oIhmHpay5RaV-12" style="edgeStyle=none;rounded=0;orthogonalLoop=1;jettySize=auto;html=1;exitX=1;exitY=1;exitDx=0;exitDy=0;strokeColor=#23445D;fontFamily=Comic Sans MS;" edge="1" parent="WIyWlLk6GJQsqaUBKTNV-1" source="qd3GRjW1oIhmHpay5RaV-10" target="qd3GRjW1oIhmHpay5RaV-10">
          <mxGeometry relative="1" as="geometry" />
        </mxCell>
        <mxCell id="qd3GRjW1oIhmHpay5RaV-13" style="edgeStyle=none;rounded=0;orthogonalLoop=1;jettySize=auto;html=1;exitX=0.5;exitY=1;exitDx=0;exitDy=0;strokeColor=#23445D;fontFamily=Comic Sans MS;" edge="1" parent="WIyWlLk6GJQsqaUBKTNV-1" source="qd3GRjW1oIhmHpay5RaV-10" target="qd3GRjW1oIhmHpay5RaV-10">
          <mxGeometry relative="1" as="geometry" />
        </mxCell>
        <mxCell id="qd3GRjW1oIhmHpay5RaV-19" style="edgeStyle=none;rounded=0;orthogonalLoop=1;jettySize=auto;html=1;exitX=0;exitY=1;exitDx=0;exitDy=0;entryX=0.5;entryY=0.071;entryDx=0;entryDy=0;entryPerimeter=0;strokeColor=#23445D;fontFamily=Comic Sans MS;" edge="1" parent="WIyWlLk6GJQsqaUBKTNV-1" source="qd3GRjW1oIhmHpay5RaV-0" target="qd3GRjW1oIhmHpay5RaV-9">
          <mxGeometry relative="1" as="geometry" />
        </mxCell>
      </root>
    </mxGraphModel>
  </diagram>
</mxfile>
